<svg xmlns="http://www.w3.org/2000/svg" version="1.1" xmlns:xlink="http://www.w3.org/1999/xlink" xmlns:svgjs="http://svgjs.dev/svgjs" width="20" height="20" viewBox="0 0 2000 1010"><g transform="matrix(1,0,0,1,-1.2121212121212466,-0.19559806230569166)"><svg viewBox="0 0 396 200" data-background-color="#bec6f3" preserveAspectRatio="xMidYMid meet" height="20" width="20" xmlns="http://www.w3.org/2000/svg" xmlns:xlink="http://www.w3.org/1999/xlink"><g id="tight-bounds" transform="matrix(1,0,0,1,0.2400000000000091,0.038732289565487577)"><svg viewBox="0 0 395.52 199.92253542086902" height="199.92253542086902" width="395.52"><g><svg viewBox="0 0 942.0097191778061 476.15536875285153" height="199.92253542086902" width="395.52"><g><rect width="22.154981908537728" height="476.15536875285153" x="484.62478790743717" y="0" fill="#075985" opacity="1" stroke-width="0" stroke="transparent" fill-opacity="1" class="rect-yte-0" data-fill-palette-color="secondary" rx="1%" id="yte-0" data-palette-color="#075985"></rect></g><g transform="matrix(1,0,0,1,564.7771046550789,1.18446609142498)"><svg viewBox="0 0 377.23261452272726 473.78643657000157" height="473.78643657000157" width="377.23261452272726"><g id="textblocktransform"><svg viewBox="0 0 377.23261452272726 473.78643657000157" height="473.78643657000157" width="377.23261452272726" id="textblock"><g><svg viewBox="0 0 377.23261452272726 245.672304" height="245.672304" width="377.23261452272726"><g transform="matrix(1,0,0,1,0,0)"><svg width="377.23261452272726" viewBox="0.95 -34.55 54.05 35.199999999999996" height="245.672304" data-palette-color="#075985"><path d="M0.95 0L12.65-34.1 17.85-34.1 29.55 0 25.2 0 22.2-9.1 8.35-9.1 5.3 0 0.95 0ZM9.65-13.1L20.85-13.1 15.35-30.1 15.2-30.1 9.65-13.1ZM53.05-33.45L52.35-29.4Q51.15-29.7 49.85-29.95L49.85-29.95Q48.7-30.2 47.22-30.38 45.75-30.55 44.15-30.55L44.15-30.55Q40.45-30.55 38.85-29.43 37.25-28.3 37.25-25.95L37.25-25.95Q37.3-24.1 38.6-22.83 39.9-21.55 41.85-20.48 43.8-19.4 46.12-18.38 48.45-17.35 50.4-16.03 52.35-14.7 53.67-12.93 55-11.15 55-8.6L55-8.6Q55-5.65 53.72-3.85 52.45-2.05 50.5-1.05 48.55-0.05 46.22 0.3 43.9 0.65 41.8 0.65L41.8 0.65Q39.8 0.65 38.15 0.4 36.5 0.15 35.3-0.15L35.3-0.15Q33.9-0.5 32.75-0.95L32.75-0.95 33.75-5Q34.9-4.5 36.2-4.15L36.2-4.15Q37.35-3.85 38.77-3.6 40.2-3.35 41.8-3.35L41.8-3.35Q43.75-3.35 45.37-3.6 47-3.85 48.2-4.4 49.4-4.95 50.07-5.85 50.75-6.75 50.75-8.05L50.75-8.05Q50.7-10 49.47-11.23 48.25-12.45 46.22-13.58 44.2-14.7 41.87-15.75 39.55-16.8 37.6-18.15 35.65-19.5 34.32-21.35 33-23.2 33-25.95L33-25.95Q33-27.55 33.55-29.1 34.1-30.65 35.42-31.85 36.75-33.05 38.87-33.8 41-34.55 44.15-34.55L44.15-34.55Q45.95-34.55 47.57-34.38 49.2-34.2 50.4-34L50.4-34Q51.8-33.75 53.05-33.45L53.05-33.45Z" opacity="1" transform="matrix(1,0,0,1,0,0)" fill="#075985" class="wordmark-text-0" data-fill-palette-color="primary" id="text-0"></path></svg></g></svg></g><g transform="matrix(1,0,0,1,0,303.669638839104)"><svg viewBox="0 0 283.1130771993068 170.1167977308976" height="170.1167977308976" width="283.1130771993068"><g transform="matrix(1,0,0,1,0,0)"><svg width="283.1130771993068" viewBox="0.2999999999999985 -37.5 204.7 120" height="170.1167977308976" data-palette-color="#075985"><svg></svg><svg></svg><svg></svg><g class="slogan-text-1" data-fill-palette-color="secondary" id="text-1"><path d="M0.75-34.05v-0.95h14.7c5.033 0 8.783 0.723 11.25 2.17 2.467 1.453 3.7 4.047 3.7 7.78v0c0 4.133-1.5 6.983-4.5 8.55v0c-2.8 1.433-6.717 2.15-11.75 2.15v0h-0.4v13.4h6.25v0.95h-19.25v-0.95h3.25v-33.1zM15.1-34.05h-1.35v18.75h1.05c2 0 3.383-0.683 4.15-2.05 0.767-1.367 1.15-3.583 1.15-6.65v0-2.4c0-2.833-0.357-4.817-1.07-5.95-0.72-1.133-2.03-1.7-3.93-1.7zM32-36.6v-0.9h12.25v36.6h2.8v0.9h-14.85v-0.9h2.75v-35.7zM60-11.75v0h1.45v-3.85c0-3.167-0.177-5.293-0.53-6.38-0.347-1.08-1.02-1.62-2.02-1.62v0c-0.6 0-1.143 0.157-1.63 0.47-0.48 0.32-0.72 0.753-0.72 1.3 0 0.553 0.1 1.113 0.3 1.68v0h1.25c0.267 0.7 0.4 1.54 0.4 2.52 0 0.987-0.417 1.837-1.25 2.55-0.833 0.72-1.883 1.08-3.15 1.08v0c-2.867 0-4.3-1.383-4.3-4.15v0c0-4.1 3.483-6.15 10.45-6.15v0c3.967 0 6.707 0.673 8.22 2.02 1.52 1.353 2.28 3.83 2.28 7.43v0 10.15c0 1.733 0.483 2.6 1.45 2.6v0c1.133 0 1.8-1.717 2-5.15v0l0.75 0.05c-0.133 2.933-0.683 4.95-1.65 6.05-0.967 1.1-2.55 1.65-4.75 1.65v0c-4 0-6.3-1.233-6.9-3.7v0c-0.433 1.267-1.083 2.2-1.95 2.8-0.867 0.6-2.133 0.9-3.8 0.9v0c-4.933 0-7.4-2.017-7.4-6.05v0c0-2.367 0.943-3.993 2.83-4.88 1.88-0.88 4.77-1.32 8.67-1.32zM58-5.6c0 1.733 0.09 2.85 0.27 3.35 0.187 0.5 0.54 0.75 1.06 0.75 0.513 0 0.993-0.427 1.44-1.28 0.453-0.847 0.68-2.02 0.68-3.52v0-4.65h-0.35c-2.067 0-3.1 1.517-3.1 4.55v0zM75.55-22.9v-0.9h12.05v4.6c0.533-1.533 1.35-2.767 2.45-3.7 1.1-0.933 2.767-1.4 5-1.4v0c5.167 0 7.75 2.783 7.75 8.35v0 15.05h2.8v0.9h-14.15v-0.9h2.05v-16.25c0-2-0.133-3.293-0.4-3.88-0.267-0.58-0.75-0.87-1.45-0.87v0c-1.067 0-2.007 0.7-2.82 2.1-0.82 1.4-1.23 3.1-1.23 5.1v0 13.8h2.15v0.9h-14.2v-0.9h2.75v-22z" fill="#075985" fill-rule="nonzero" stroke="none" stroke-width="1" stroke-linecap="butt" stroke-linejoin="miter" stroke-miterlimit="10" stroke-dasharray="" stroke-dashoffset="0" font-family="none" font-weight="none" font-size="none" text-anchor="none" style="mix-blend-mode: normal" data-fill-palette-color="secondary" opacity="1"></path><path transform="translate(0,41)" d="M13.05-34.2l6.8 15.65 7.1-15.65h-5.05v-0.8h9.85v0.8h-3.3l-7.55 16.7v16.55h3.05v0.95h-15.85v-0.95h3.05v-15.6l-8.5-17.65h-2.35v-0.8h16v0.8zM43.95-9.85v0-4.25c0-3.233-0.173-5.593-0.52-7.08-0.353-1.48-1.163-2.22-2.43-2.22v0c-0.733 0-1.323 0.207-1.77 0.62-0.453 0.42-0.78 1.113-0.98 2.08v0c-0.3 1.5-0.45 3.783-0.45 6.85v0 3.9c0 3.633 0.11 5.817 0.33 6.55 0.213 0.733 0.437 1.333 0.67 1.8v0c0.367 0.8 1.083 1.2 2.15 1.2v0c1.3 0 2.15-0.75 2.55-2.25v0c0.3-1.067 0.45-3.467 0.45-7.2zM40.85 0.5c-4.167 0-7.317-1.067-9.45-3.2-2.133-2.133-3.2-5.193-3.2-9.18 0-3.98 1.143-7.047 3.43-9.2 2.28-2.147 5.487-3.22 9.62-3.22 4.133 0 7.217 0.99 9.25 2.97 2.033 1.987 3.05 5.013 3.05 9.08v0c0 8.5-4.233 12.75-12.7 12.75zM84.2-0.9v0.9h-11.4l-0.55-3.65c-0.533 1.333-1.323 2.357-2.37 3.07-1.053 0.72-2.613 1.08-4.68 1.08v0c-5.167 0-7.75-2.783-7.75-8.35v0-15.05h-2.8v-0.9h12.1v17.15c0 2 0.143 3.317 0.43 3.95 0.28 0.633 0.847 0.95 1.7 0.95 0.847 0 1.603-0.517 2.27-1.55 0.667-1.033 1-2.467 1-4.3v0-15.3h-2.3v-0.9h11.6v22.9zM101.9-22.4v0c-1.233 0-2.317 0.8-3.25 2.4-0.933 1.6-1.4 3.5-1.4 5.7v0 13.4h3.55v0.9h-15.6v-0.9h2.75v-22h-2.75v-0.9h12.05v4.8c0.433-1.7 1.267-3.01 2.5-3.93 1.233-0.913 2.633-1.37 4.2-1.37 1.567 0 2.843 0.44 3.83 1.32 0.98 0.887 1.47 2.137 1.47 3.75 0 1.62-0.367 2.863-1.1 3.73-0.733 0.867-1.857 1.3-3.37 1.3-1.52 0-2.637-0.5-3.35-1.5-0.72-1-0.813-2.383-0.28-4.15v0h1.8c0.833-1.7 0.483-2.55-1.05-2.55z" fill="#075985" fill-rule="nonzero" stroke="none" stroke-width="1" stroke-linecap="butt" stroke-linejoin="miter" stroke-miterlimit="10" stroke-dasharray="" stroke-dashoffset="0" font-family="none" font-weight="none" font-size="none" text-anchor="none" style="mix-blend-mode: normal" data-fill-palette-color="secondary" opacity="1"></path><path transform="translate(0,82)" d="M13.05-34.05l8.15 23.95 4.15-14.4-3-9.55h-2.85v-0.95h15.5v0.95h-2.95l7.45 23.65 6-23.65h-5.05v-0.95h10v0.95h-3.3l-9.2 34.55h-4.45l-7.4-22.6-6.5 22.6h-4.35l-12.6-34.55h-2.35v-0.95h16.25v0.95zM63.4-9.85v0-4.25c0-3.233-0.173-5.593-0.52-7.08-0.353-1.48-1.163-2.22-2.43-2.22v0c-0.733 0-1.327 0.207-1.78 0.62-0.447 0.42-0.77 1.113-0.97 2.08v0c-0.3 1.5-0.45 3.783-0.45 6.85v0 3.9c0 3.633 0.11 5.817 0.33 6.55 0.213 0.733 0.437 1.333 0.67 1.8v0c0.367 0.8 1.083 1.2 2.15 1.2v0c1.3 0 2.15-0.75 2.55-2.25v0c0.3-1.067 0.45-3.467 0.45-7.2zM60.3 0.5c-4.167 0-7.317-1.067-9.45-3.2-2.133-2.133-3.2-5.193-3.2-9.18 0-3.98 1.143-7.047 3.43-9.2 2.28-2.147 5.487-3.22 9.62-3.22 4.133 0 7.217 0.99 9.25 2.97 2.033 1.987 3.05 5.013 3.05 9.08v0c0 8.5-4.233 12.75-12.7 12.75zM91.1-22.4v0c-1.233 0-2.317 0.8-3.25 2.4-0.933 1.6-1.4 3.5-1.4 5.7v0 13.4h3.55v0.9h-15.6v-0.9h2.75v-22h-2.75v-0.9h12.05v4.8c0.433-1.7 1.267-3.01 2.5-3.93 1.233-0.913 2.633-1.37 4.2-1.37 1.567 0 2.843 0.44 3.83 1.32 0.98 0.887 1.47 2.137 1.47 3.75 0 1.62-0.367 2.863-1.1 3.73-0.733 0.867-1.857 1.3-3.37 1.3-1.52 0-2.637-0.5-3.35-1.5-0.72-1-0.813-2.383-0.28-4.15v0h1.8c0.833-1.7 0.483-2.55-1.05-2.55zM128.9 0h-13.9v-0.9h2.3l-5.65-11.6-0.95 0.25v11.35h2.3v0.9h-14.35v-0.9h2.75v-35.7h-2.95v-0.9h12.25v24.25l0.8-0.3 11.25-9.35h-4.7v-0.9h9.85v0.9h-3.5l-5.95 5.05 8.65 16.95h1.8zM144.55-9.85v0-4.25c0-3.233-0.173-5.593-0.52-7.08-0.353-1.48-1.163-2.22-2.43-2.22v0c-0.733 0-1.323 0.207-1.77 0.62-0.453 0.42-0.78 1.113-0.98 2.08v0c-0.3 1.5-0.45 3.783-0.45 6.85v0 3.9c0 3.633 0.107 5.817 0.32 6.55 0.22 0.733 0.447 1.333 0.68 1.8v0c0.367 0.8 1.083 1.2 2.15 1.2v0c1.3 0 2.15-0.75 2.55-2.25v0c0.3-1.067 0.45-3.467 0.45-7.2zM141.45 0.5c-4.167 0-7.317-1.067-9.45-3.2-2.133-2.133-3.2-5.193-3.2-9.18 0-3.98 1.14-7.047 3.42-9.2 2.287-2.147 5.497-3.22 9.63-3.22 4.133 0 7.217 0.99 9.25 2.97 2.033 1.987 3.05 5.013 3.05 9.08v0c0 8.5-4.233 12.75-12.7 12.75zM184.8-0.9v0.9h-11.4l-0.55-3.65c-0.533 1.333-1.323 2.357-2.37 3.07-1.053 0.72-2.613 1.08-4.68 1.08v0c-5.167 0-7.75-2.783-7.75-8.35v0-15.05h-2.8v-0.9h12.1v17.15c0 2 0.143 3.317 0.43 3.95 0.28 0.633 0.847 0.95 1.7 0.95 0.847 0 1.603-0.517 2.27-1.55 0.667-1.033 1-2.467 1-4.3v0-15.3h-2.3v-0.9h11.6v22.9zM188.3-7.15v0-15.75h-2.75v-0.9h2.75v-6.45l9.3-2.3v8.75h6.5v0.9h-6.5v16.85c0 1.567 0.16 2.717 0.48 3.45 0.313 0.733 0.97 1.1 1.97 1.1 1 0 1.877-0.5 2.63-1.5 0.747-1 1.237-2.367 1.47-4.1v0l0.85 0.1c-0.267 2.3-1 4.123-2.2 5.47-1.2 1.353-3.183 2.03-5.95 2.03-2.767 0-4.883-0.55-6.35-1.65-1.467-1.1-2.2-3.1-2.2-6z" fill="#075985" fill-rule="nonzero" stroke="none" stroke-width="1" stroke-linecap="butt" stroke-linejoin="miter" stroke-miterlimit="10" stroke-dasharray="" stroke-dashoffset="0" font-family="none" font-weight="none" font-size="none" text-anchor="none" style="mix-blend-mode: normal" data-fill-palette-color="secondary" opacity="1"></path></g></svg></g></svg></g></svg></g></svg></g><g transform="matrix(1,0,0,1,0,147.57632696437668)"><svg viewBox="0 0 426.6274530683332 181.0027148240982" height="181.0027148240982" width="426.6274530683332"><g><svg xmlns:x="http://ns.adobe.com/Extensibility/1.0/" xmlns:i="http://ns.adobe.com/AdobeIllustrator/10.0/" xmlns:graph="http://ns.adobe.com/Graphs/1.0/" xmlns="http://www.w3.org/2000/svg" xmlns:xlink="http://www.w3.org/1999/xlink" version="1.1" x="8" y="0" viewBox="6 30.605 88 38.78999999999999" enable-background="new 0 0 100 100" xml:space="preserve" height="181.0027148240982" width="410.6274530683332" class="icon-icon-0" data-fill-palette-color="accent" id="icon-0"><path d="M93.5 48.889V47.5A1 1 0 1 0 91.5 47.5V48.5H89.526V39.711A4.19 4.19 0 0 0 85.341 35.526H84A4.19 4.19 0 0 0 79.815 39.711V48.5H78.341V35.237A4.19 4.19 0 0 0 74.157 31.052H70.578A4.19 4.19 0 0 0 66.393 35.237V43.5H33.605V34.789A4.19 4.19 0 0 0 29.42 30.605H25.841A4.19 4.19 0 0 0 21.656 34.789V48.5H20.182V39.711A4.19 4.19 0 0 0 15.998 35.526H14.656A4.19 4.19 0 0 0 10.472 39.711V48.5H8.5V47.5A1 1 0 0 0 6.5 47.5V48.889C6.195 49.164 6 49.558 6 50S6.195 50.836 6.5 51.111V52.5A1 1 0 1 0 8.5 52.5V51.5H10.474V60.289A4.19 4.19 0 0 0 14.658 64.474H16A4.19 4.19 0 0 0 20.184 60.289V51.5H21.658V64.763A4.19 4.19 0 0 0 25.843 68.948H29.422A4.19 4.19 0 0 0 33.607 64.763V56.5H66.396V65.21A4.19 4.19 0 0 0 70.581 69.395H74.16A4.19 4.19 0 0 0 78.344 65.21V51.5H79.818V60.289A4.19 4.19 0 0 0 84.003 64.474H85.345A4.19 4.19 0 0 0 89.53 60.289V51.5H91.5V52.5A1 1 0 1 0 93.5 52.5V51.11C93.805 50.836 94 50.442 94 50S93.805 49.164 93.5 48.889M62.5 51H37.5A1 1 0 0 1 37.5 49H62.5A1 1 0 1 1 62.5 51" fill="#075985" data-fill-palette-color="accent"></path></svg><g></g></g></svg></g></svg></g><defs></defs></svg><rect width="395.52" height="199.92253542086902" fill="none" stroke="none" visibility="hidden"></rect></g></svg></g></svg>